<svg xmlns="http://www.w3.org/2000/svg" viewBox="0 0 170 21.77"><defs><style>.cls-1,.cls-2{fill:#fff;}.cls-2{opacity:0.99;}</style></defs><title>logo</title><g id="Слой_2" data-name="Слой 2"><g id="Layer_1" data-name="Layer 1"><path class="cls-1" d="M33,1.8A3.36,3.36,0,0,0,29.6,5.16v8.52a.67.67,0,0,1-.67.67h-.45a1.57,1.57,0,0,0-1.58,1.57v1A.13.13,0,0,0,27,17h1.89a2.89,2.89,0,0,0,.72-.08,3.36,3.36,0,0,0,2.65-3.28V5.16A.67.67,0,0,1,33,4.49h4.16a.13.13,0,0,1,.14.13V16.91a.13.13,0,0,0,.14.13h2.42a.13.13,0,0,0,.14-.13V2.47a.66.66,0,0,0-.67-.67Z"/><path class="cls-1" d="M69.34,14.34h-.45V2.47a.67.67,0,0,0-.68-.67H61.88a3.36,3.36,0,0,0-3.37,3.36v8.52a.67.67,0,0,1-.67.67h-.19a1.57,1.57,0,0,0-1.58,1.57v2.19a1.58,1.58,0,0,0,1.58,1.58h1a.14.14,0,0,0,.13-.14V17h9.44v2.51a.13.13,0,0,0,.12.14h1a1.58,1.58,0,0,0,1.58-1.58V16.92h0v-1A1.58,1.58,0,0,0,69.34,14.34ZM61.88,4.49h4.17a.13.13,0,0,1,.13.13v9.72h-5a3.51,3.51,0,0,0,.07-.66V5.16A.67.67,0,0,1,61.88,4.49Z"/><path class="cls-1" d="M54,4.66A3.39,3.39,0,0,0,51,1.58v0H47.12A3.41,3.41,0,0,0,44,4.66L43,17v0a.12.12,0,0,0,.12.13l1,.09h.2a1.59,1.59,0,0,0,1.52-1.45l.28-3.32H52l.29,3.32a1.59,1.59,0,0,0,1.52,1.45H54l1-.09a.13.13,0,0,0,.13-.13v0Zm-6.83-.35h3.66a.66.66,0,0,1,.45.53l.42,4.93h-5.4l.42-4.93A.66.66,0,0,1,47.19,4.31Z"/><path class="cls-1" d="M83.28,4.66a3.4,3.4,0,0,0-3.07-3.08v0H76.38a3.41,3.41,0,0,0-3.11,3.09L72.22,17v0a.12.12,0,0,0,.12.13l1,.09h.2a1.59,1.59,0,0,0,1.52-1.45l.28-3.32h5.87l.29,3.32A1.59,1.59,0,0,0,83,17.27h.2l1-.09a.13.13,0,0,0,.13-.13v0Zm-6.83-.35H80.1a.67.67,0,0,1,.46.53L81,9.77h-5.4L76,4.84A.69.69,0,0,1,76.45,4.31Z"/><path class="cls-1" d="M115.57,1.74a3.4,3.4,0,0,0-3.41,3.41v8.74a3.42,3.42,0,0,0,3.41,3.29h8.17a1.6,1.6,0,0,0,1.6-1.59v-1a.14.14,0,0,0-.14-.14h-9.63a.68.68,0,0,1-.68-.68V11a.13.13,0,0,1,.14-.13h6a1.6,1.6,0,0,0,1.6-1.59v-1a.15.15,0,0,0-.14-.14H115a.13.13,0,0,1-.14-.13V5.15a.69.69,0,0,1,.68-.69h7.26a1.59,1.59,0,0,0,1.59-1.59v-1a.13.13,0,0,0-.13-.13Z"/><path class="cls-1" d="M168.94,4.62a3.4,3.4,0,0,0-3.07-3.09H162a3.4,3.4,0,0,0-3.11,3.09L157.88,17v0a.12.12,0,0,0,.12.13l1,.09h.2a1.58,1.58,0,0,0,1.52-1.44l.28-3.33h5.87l.29,3.33a1.58,1.58,0,0,0,1.52,1.44h.2l1-.09A.13.13,0,0,0,170,17v0Zm-6.83-.35h3.65a.67.67,0,0,1,.46.53l.42,4.92h-5.4l.41-4.92A.69.69,0,0,1,162.11,4.27Z"/><path class="cls-1" d="M149.52,3.26l-3.69,10.9h0a.68.68,0,0,1-1,.15.62.62,0,0,1-.28-.51v-12a.14.14,0,0,0-.14-.13h-1a1.59,1.59,0,0,0-1.59,1.59V13.78a3.35,3.35,0,0,0,1.41,2.75,2.2,2.2,0,0,0,.32.21h0a3.36,3.36,0,0,0,1.53.43h.52A3.38,3.38,0,0,0,148,15.78l3.85-11.12a.7.7,0,0,1,.48-.2.69.69,0,0,1,.68.69V15.59a1.59,1.59,0,0,0,1.59,1.59h1a.14.14,0,0,0,.15-.13V5.15a3.42,3.42,0,0,0-6.27-1.89"/><path class="cls-1" d="M102.52,3.59l-2.1,8.76h0v0a.13.13,0,0,1-.12.07.15.15,0,0,1-.12-.08L98.06,3.59a3.4,3.4,0,0,0-6.52,1C91.53,4.7,90.49,17,90.49,17h0a.14.14,0,0,0,.12.13l1,.09h.2a1.58,1.58,0,0,0,1.52-1.44l.94-11a.7.7,0,0,1,.66-.51.69.69,0,0,1,.63.41h0l3.27,11.52a1.62,1.62,0,0,0,1.18.94h.58a1.59,1.59,0,0,0,1.12-.84L105,4.65h0a.68.68,0,0,1,.62-.41.69.69,0,0,1,.68.57l.93,11a1.58,1.58,0,0,0,1.52,1.44h.2l1-.09a.12.12,0,0,0,.12-.13v0l-1-12.36a3.41,3.41,0,0,0-6.53-1"/><path class="cls-1" d="M139.29,14.38h-.45V2.51a.67.67,0,0,0-.68-.67h-6.33a3.37,3.37,0,0,0-3.37,3.36v8.52a.67.67,0,0,1-.67.67h-.19A1.57,1.57,0,0,0,126,16v2.19a1.58,1.58,0,0,0,1.58,1.58h1a.13.13,0,0,0,.13-.13V17.08h9.44V19.6a.12.12,0,0,0,.12.13h1a1.58,1.58,0,0,0,1.58-1.58V17h0V16A1.58,1.58,0,0,0,139.29,14.38Zm-7.46-9.85H136a.13.13,0,0,1,.13.13v9.72h-5a2.84,2.84,0,0,0,.07-.66V5.2A.67.67,0,0,1,131.83,4.53Z"/><path class="cls-2" d="M7.91,6c0-.06,0-.13,0-.19l0-.17c0-.06,0-.11,0-.17l-.06-.16s0-.11-.08-.16A1.09,1.09,0,0,1,7.6,5l-.1-.14-.11-.13-.12-.12-.13-.11L7,4.42l-.14-.09L6.7,4.26,6.55,4.2l-.16,0-.16,0-.17,0H5.73l-.16,0-.15,0-.15,0-.15.07L5,4.38l-.13.09-.12.1-.11.11-.11.11-.09.13-.08.13-.07.14a1.21,1.21,0,0,1,0,.14,1,1,0,0,0,0,.14.8.8,0,0,0,0,.15.77.77,0,0,0,0,.15c0,.05,0,.1,0,.15a.61.61,0,0,1,0,.14.77.77,0,0,1,0,.15,1,1,0,0,1,0,.14c0,.05,0,.1,0,.14l.06.13s0,.09.07.13a.83.83,0,0,0,.08.12L4.52,7l.1.11.11.09.11.09L5,7.34l.13.06.12,0,.14,0,.13,0,.13,0h.27l.13,0,.13,0,.13,0,.12,0,.11-.06.11-.06.11-.08.09-.08L6.89,7A.86.86,0,0,1,7,6.93L7,6.82l.06-.11,0-.11a.56.56,0,0,1,0-.12.36.36,0,0,1,0-.11.5.5,0,0,0,0-.12.49.49,0,0,1,0-.12s0-.07,0-.11,0,.06,0,.1l0,.12,0,.11a.49.49,0,0,0,0,.11l-.06.1L7,6.66l-.07.09-.07.08-.08.07L6.68,7l-.1,0-.09,0-.1,0-.1,0-.11,0-.11,0H5.76l-.1,0-.1,0-.09,0-.09,0L5.29,7,5.22,7l-.08-.07-.07-.07L5,6.74,5,6.66l0-.09,0-.08,0-.09a.29.29,0,0,1,0-.09s0-.06,0-.09V6s0-.06,0-.09,0-.06,0-.09,0-.05,0-.08l0-.08a.3.3,0,0,0,0-.08L5,5.55l0-.07,0-.06.06-.06.06-.05.07,0,.07,0,.08,0,.07,0,.08,0h.3l.07,0,.07,0,.07,0,.06,0,.07,0s0,0,0,.05l0,0s0,0,.05,0l0,0,0,.06,0,.06,0,.06a.14.14,0,0,0,0,.06s0,0,0,.06,0,0,0,.06,0,0,0,.06,0,0,0,.06V6Z"/><path class="cls-2" d="M9.29,6c0-.1,0-.2,0-.3s0-.19,0-.28-.05-.19-.07-.29-.06-.19-.1-.28a2,2,0,0,0-.11-.26L8.8,4.35c-.06-.08-.11-.16-.16-.24l-.18-.23-.2-.21L8,3.48l-.23-.17-.25-.15L7.31,3l-.26-.1-.28-.09L6.5,2.78l-.28,0H5.65l-.27,0-.28.06-.27.09L4.58,3l-.25.13-.23.15-.22.17-.2.18-.18.2-.17.22-.15.22c0,.08-.09.16-.13.25L3,4.8l-.09.26-.06.26,0,.26a2.45,2.45,0,0,0,0,.27c0,.09,0,.18,0,.27l0,.26c0,.09,0,.17,0,.26s.05.17.08.25L3,7.14l.12.23.14.22.15.21L3.59,8l.19.18.2.17.21.14.23.12.23.11.24.08.25.06.25,0,.25,0h.25a1.15,1.15,0,0,0,.26,0l.24,0,.24-.07.23-.08.23-.11.21-.12.2-.14.19-.16L7.86,8c0-.07.11-.13.16-.19l.14-.2.12-.21a2,2,0,0,0,.1-.21L8.47,7l.06-.23a1.57,1.57,0,0,0,0-.23,1.94,1.94,0,0,0,0-.24c0-.08,0-.15,0-.23,0,.08,0,.15,0,.23a2.23,2.23,0,0,0,0,.23l-.06.23a1.43,1.43,0,0,0-.08.22,2,2,0,0,0-.1.21l-.12.2-.13.19L7.9,7.7l-.16.17L7.57,8l-.19.14-.19.11L7,8.36l-.21.08-.21.06-.22,0-.23,0H5.67l-.22,0-.22,0L5,8.4l-.21-.09-.19-.1-.17-.12L4.29,8,4.13,7.8,4,7.64a1.09,1.09,0,0,1-.13-.17,1.74,1.74,0,0,1-.11-.18,1,1,0,0,1-.1-.18l-.08-.2-.06-.2c0-.07,0-.14,0-.21l0-.2V6.09a1.27,1.27,0,0,1,0-.2,1.52,1.52,0,0,1,0-.21,1.42,1.42,0,0,1,0-.2l.06-.2.08-.18a1.62,1.62,0,0,1,.1-.18l.1-.17L4,4.59l.13-.15.15-.14.16-.12.16-.1L4.77,4,5,3.91l.19-.06.19-.05.19,0h.39l.19,0,.18,0,.19.06L6.64,4,6.81,4l.16.1a.91.91,0,0,0,.16.11l.13.13.13.13.12.14a1.4,1.4,0,0,0,.1.16A.8.8,0,0,1,7.69,5l.08.16.06.17c0,.06,0,.12,0,.18l0,.18s0,.11,0,.17V6Z"/><path class="cls-2" d="M10.66,6c0-.14,0-.27,0-.41s-.05-.27-.06-.4-.07-.27-.1-.4-.08-.26-.13-.39-.11-.25-.16-.38L10,3.68l-.23-.34L9.53,3l-.28-.3-.31-.27L8.62,2.2,8.28,2,7.92,1.8l-.38-.16-.38-.11-.39-.09-.4-.05-.4,0-.4,0-.39.05-.39.08-.39.12L4,1.78,3.69,2l-.33.21L3,2.4l-.29.26c-.09.1-.19.19-.27.29l-.25.3L2,3.58a3.72,3.72,0,0,0-.19.34c-.05.12-.1.24-.16.36l-.12.36L1.46,5,1.4,5.4c0,.13,0,.26,0,.38v.39c0,.13,0,.25,0,.38s.05.25.08.37.07.25.1.37.09.24.14.35A3.54,3.54,0,0,0,1.9,8c.07.11.13.22.19.33l.23.31.24.29.27.26.29.24.31.21.33.19L4.1,10l.35.13.36.1.37.06.37,0h.36l.37,0,.37-.06L7,10.1,7.35,10l.33-.15L8,9.64l.3-.21.28-.23L8.84,9l.24-.27.21-.3.19-.3.15-.33.13-.33.1-.34c0-.12.05-.23.07-.35s0-.23,0-.35V6c0,.12,0,.24,0,.36l-.06.34c0,.12-.05.23-.08.34l-.12.33-.14.32L9.38,8c-.07.1-.14.19-.2.29L9,8.58l-.24.25-.26.23-.28.21a2.82,2.82,0,0,0-.29.18l-.32.15-.31.13-.33.09-.34.07-.34,0-.34,0-.34,0-.34,0L4.9,9.8l-.32-.1-.31-.13L4,9.41l-.29-.18L3.43,9,3.18,8.8C3.11,8.72,3,8.64,3,8.55l-.21-.26c0-.09-.12-.18-.17-.27s-.11-.2-.16-.3l-.12-.3c0-.1-.07-.21-.11-.31s0-.21-.07-.32,0-.21,0-.32,0-.22,0-.33,0-.22,0-.32,0-.21,0-.32,0-.22.07-.32l.09-.31.12-.3.15-.28c0-.1.11-.19.16-.28s.13-.17.19-.25l.21-.24.23-.22.25-.2.26-.17.28-.16.29-.13.3-.1L5,2.47l.31-.05.31,0h.31l.31,0,.31.06.29.08.29.11.28.13L7.68,3a2.27,2.27,0,0,1,.25.18l.23.19.22.21.19.24L8.75,4c0,.08.1.17.15.25L9,4.57c0,.09.07.18.11.28s0,.19.08.29,0,.19,0,.29l0,.29V6Z"/><path class="cls-2" d="M12,6l0-.52c0-.17,0-.34-.08-.52s-.07-.34-.11-.52-.12-.33-.17-.5-.14-.32-.2-.49-.17-.3-.25-.46-.19-.3-.29-.44l-.32-.42-.36-.39-.39-.35-.41-.32L9,.82,8.53.57,8,.37,7.55.21,7,.1,6.53,0,6,0,5.49,0,5,.08l-.51.1c-.16.06-.33.1-.49.15L3.5.52,3,.75,2.6,1l-.41.3-.38.34c-.12.12-.24.24-.35.37l-.32.39-.28.42-.25.45c-.07.15-.14.31-.2.46s-.12.32-.17.48l-.12.49c0,.16,0,.33-.08.5s0,.33,0,.5,0,.33,0,.5,0,.33,0,.5l.09.49c0,.16.09.32.13.48l.18.46c.07.16.14.3.22.46L.92,9l.3.41.31.37.36.35.38.32.4.29L3.1,11l.44.21.47.17.47.13.48.09.49,0h.49l.49,0,.48-.08.47-.12.45-.16.45-.2.42-.24.4-.27.37-.3.35-.33.32-.36.28-.39.24-.41c.08-.14.15-.29.22-.43l.17-.44c0-.15.09-.3.14-.46L11.28,7l.06-.47c0-.16,0-.33,0-.48l0,.48c0,.16-.05.31-.07.47l-.12.45L11,7.86c-.06.15-.13.29-.19.43l-.22.41-.26.39c-.09.13-.19.25-.29.37s-.22.22-.32.34l-.35.31L9,10.38l-.4.25-.41.21L7.74,11l-.44.14-.45.09-.46.06-.46,0-.45,0L5,11.23l-.44-.09L4.14,11l-.42-.18-.4-.2c-.13-.08-.26-.17-.39-.24l-.36-.28-.33-.3-.31-.33-.28-.36-.24-.37-.21-.4L1,7.93c0-.14-.09-.28-.14-.42s-.07-.29-.1-.43S.73,6.79.71,6.64s0-.3,0-.45,0-.29,0-.44,0-.29.05-.44S.8,5,.83,4.88.92,4.6,1,4.46s.1-.28.16-.41.13-.27.19-.4l.23-.37.26-.36.28-.33.32-.3L2.74,2l.36-.25.38-.2c.13-.07.26-.12.39-.18l.41-.15.42-.1.42-.07.43,0H6l.43,0,.42.08.41.11.4.15L8,1.58l.36.21L8.74,2c.11.1.22.18.32.28s.2.19.31.29l.27.32c.08.11.16.23.25.34l.21.36c.05.13.12.25.18.38s.09.26.14.39l.12.4c0,.14.05.27.07.41s0,.28,0,.41,0,.27,0,.41Z"/><path class="cls-2" d="M15,17.17c0,.07,0,.14,0,.21l0,.2.06.2c0,.06,0,.12.07.19a1.42,1.42,0,0,0,.08.18,1.62,1.62,0,0,1,.1.18l.11.16.12.15.14.14.16.14c.05,0,.1.08.16.11l.17.1.17.09.18.07.19.05.18,0,.2,0h.19l.18,0,.19,0,.18-.05.18-.06.17-.08.16-.08.15-.1.14-.11.14-.13.12-.13.1-.15s.06-.1.1-.15l.08-.16.06-.16a3.2,3.2,0,0,0,.09-.34,1,1,0,0,0,0-.17c0-.06,0-.12,0-.17a1.09,1.09,0,0,1,0-.18,1,1,0,0,0,0-.16c0-.06,0-.12,0-.17a1,1,0,0,1-.05-.16,1.11,1.11,0,0,1-.07-.16l-.08-.14a1.09,1.09,0,0,0-.08-.15,1.31,1.31,0,0,1-.11-.12,1.47,1.47,0,0,0-.1-.13l-.13-.1a.41.41,0,0,0-.13-.1,1,1,0,0,0-.13-.09l-.15-.08-.15-.06-.15,0-.15,0-.16,0h-.46l-.15,0-.14,0-.14.06-.14.07-.13.07-.11.09-.12.1-.09.11a.52.52,0,0,0-.1.11.83.83,0,0,1-.08.12.75.75,0,0,0-.06.13.52.52,0,0,0-.06.13s0,.09,0,.13l0,.14a.68.68,0,0,1,0,.14s0,.09,0,.13a.57.57,0,0,1,0,.13.5.5,0,0,0,0-.12l0-.13a.69.69,0,0,1,0-.13s0-.09,0-.12a1.34,1.34,0,0,1,.06-.12l.08-.11a1,1,0,0,1,.08-.11l.09-.1.09-.08.1-.08.11-.07.12-.06.11,0,.12,0,.12,0,.12,0h.25l.12,0,.11,0,.12,0,.11,0L18,16l.1.07a.47.47,0,0,1,.09.06.6.6,0,0,1,.08.08l.08.08.07.09.06.09a.31.31,0,0,1,.05.1.36.36,0,0,1,0,.09.76.76,0,0,1,0,.11s0,.07,0,.1,0,.08,0,.11a.34.34,0,0,1,0,.1.41.41,0,0,1,0,.11.34.34,0,0,1,0,.1s0,.07,0,.1l0,.1a.36.36,0,0,1,0,.09l0,.09-.06.09a.22.22,0,0,0-.05.08l-.07.07a.23.23,0,0,0-.07.07l-.07.05a.26.26,0,0,1-.09,0l-.07,0-.09,0-.09,0-.08,0-.09,0h-.27l-.08,0-.08,0-.08,0-.07,0-.08,0L16.94,18a.12.12,0,0,1-.05,0l-.06-.06,0-.06,0-.06a.21.21,0,0,1,0-.07s0,0,0-.07l0-.07a.14.14,0,0,0,0-.07v-.07a.25.25,0,0,1,0-.08.16.16,0,0,0,0-.07s0-.07,0-.09Z"/><path class="cls-2" d="M13.43,17.17l0,.33c0,.11,0,.22,0,.34s.05.21.07.33a3,3,0,0,1,.11.32c.05.1.09.21.14.31a2.69,2.69,0,0,0,.16.29l.18.29.21.26.23.25.25.22.26.2.29.17a1.59,1.59,0,0,0,.29.15l.31.13c.11,0,.21.07.32.1l.32.07L17,21h.65l.33,0,.31-.08a1.58,1.58,0,0,0,.31-.09l.3-.11.29-.15.27-.17.26-.19.23-.21.22-.23.2-.25c.05-.09.11-.18.17-.27l.15-.27.12-.29c0-.1.07-.2.1-.3s.05-.2.08-.3a2.72,2.72,0,0,1,0-.3,3,3,0,0,1,0-.31c0-.11,0-.21,0-.31l0-.31-.06-.3c0-.1-.05-.2-.08-.29l-.12-.29c0-.09-.08-.18-.13-.27l-.15-.26-.18-.25-.2-.22-.21-.21-.23-.19-.25-.17-.26-.15-.27-.12-.28-.1-.29-.07L18,13.85l-.29,0H17.4l-.29,0-.29.05-.28.07a1.69,1.69,0,0,1-.27.1l-.26.12-.25.14-.23.17-.22.18-.2.2-.19.21-.16.23c0,.08-.1.16-.14.24s-.09.17-.13.26l-.09.26c0,.09-.06.17-.09.27s0,.17,0,.26l0,.28c0,.09,0,.19,0,.28l0-.28a2.56,2.56,0,0,1,.05-.27c0-.08,0-.17.07-.26s.06-.17.1-.25.08-.16.11-.24l.14-.24c0-.08.11-.15.15-.22l.18-.2a1.7,1.7,0,0,1,.19-.19l.2-.17.21-.16a1.71,1.71,0,0,0,.23-.13l.24-.11.25-.09.25-.07.26,0,.25,0h.26l.26,0,.25,0,.25.06.24.09.23.1.23.12a1.1,1.1,0,0,0,.21.14l.19.16.18.17.16.19.15.2.13.21c0,.07.07.15.11.22l.09.23.06.23c0,.08,0,.16.05.24l0,.24c0,.09,0,.16,0,.24a2.12,2.12,0,0,1,0,.24l0,.24-.06.23-.07.22-.09.22c0,.07-.08.14-.11.21l-.13.19-.14.19-.16.17-.18.16a1.41,1.41,0,0,1-.18.14l-.19.12-.21.11-.21.08-.22.07-.22.05-.22,0h-.45l-.22,0-.22,0-.21-.07-.2-.08-.2-.1-.18-.12-.18-.13-.16-.14s-.09-.11-.15-.16a1.83,1.83,0,0,0-.13-.16c0-.07-.08-.12-.11-.18l-.11-.19-.08-.2L15.12,18a1.6,1.6,0,0,0,0-.21,1.38,1.38,0,0,0,0-.2,1.48,1.48,0,0,0,0-.21v-.21Z"/><path class="cls-2" d="M17.12,7.92l.17,0,.17,0,.17,0,.16-.06.15-.08.15-.08.14-.1.13-.11.12-.12.1-.13.1-.14a1,1,0,0,0,.08-.14l.07-.15.06-.16a.83.83,0,0,1,0-.15l0-.16s0-.11,0-.16V5.92c0-.06,0-.11,0-.16l0-.16a.83.83,0,0,1,0-.15,1.31,1.31,0,0,1-.05-.15l-.07-.15L18.7,5s-.06-.09-.1-.13l-.09-.12-.11-.11-.12-.1a.94.94,0,0,1-.12-.09L18,4.39l-.13-.06a.66.66,0,0,0-.15,0l-.14,0-.14,0-.15,0H17l-.15,0-.14,0-.13,0-.13.06-.13.07-.12.08-.11.09-.1.09-.09.11a1,1,0,0,0-.08.11L15.77,5a1.39,1.39,0,0,0-.06.13.61.61,0,0,0-.05.12.93.93,0,0,0,0,.13.79.79,0,0,0,0,.13s0,.09,0,.13V5.8a.57.57,0,0,0,0,.13.59.59,0,0,0,0,.13.35.35,0,0,0,0,.13l0,.12.06.12a.3.3,0,0,0,.06.11l.06.11a.34.34,0,0,1,.08.09l.09.1.09.08.1.07.1.07.11.06.11,0,.12,0,.11,0,.12,0h.25l-.13,0-.11,0-.11,0-.11,0a.31.31,0,0,0-.1,0L16.46,7A.71.71,0,0,0,16.37,7l-.08-.07-.08-.08-.07-.09a.41.41,0,0,0-.05-.09L16,6.53a.36.36,0,0,0,0-.09l0-.11,0-.1a.36.36,0,0,0,0-.1V5.92s0-.07,0-.1,0-.07,0-.1l0-.1,0-.09.05-.09a.22.22,0,0,1,.05-.08l0-.08.07-.07a.23.23,0,0,1,.07-.07l.07-.07.08,0a.18.18,0,0,1,.08,0l.09,0,.08,0,.09,0,.09,0h.36l.08,0,.08,0,.07,0,.08,0,.07,0,.06,0,0,.06.05.06a.18.18,0,0,1,.05.07.16.16,0,0,1,0,.07l0,.06,0,.08a.14.14,0,0,0,0,.07s0,.05,0,.08,0,.05,0,.07v.08s0,0,0,.07a.17.17,0,0,0,0,.07.25.25,0,0,0,0,.07l0,.07,0,.06a.25.25,0,0,1,0,.07l0,0-.05,0,0,0s0,0-.05,0l-.06,0,0,0-.06,0-.06,0-.06,0h-.23s0,0,0,0Z"/><path class="cls-2" d="M17.12,9.27l.29,0,.29-.05L18,9.13l.28-.1.26-.12.25-.14L19,8.61l.22-.18.2-.2L19.62,8c.06-.08.11-.16.17-.23s.1-.16.14-.24.09-.17.13-.26.07-.17.1-.26a2.76,2.76,0,0,1,.08-.27,2.56,2.56,0,0,0,.05-.27c0-.09,0-.18,0-.27V5.94a2.62,2.62,0,0,1,0-.28,2.56,2.56,0,0,1-.05-.27l-.06-.27-.09-.26A1.12,1.12,0,0,0,20,4.61c0-.08-.08-.16-.13-.24l-.15-.23-.16-.21c-.06-.07-.13-.13-.18-.2l-.21-.18L19,3.38l-.23-.14-.24-.12L18.26,3,18,2.94l-.26-.06-.26,0-.27,0-.26,0-.26,0-.26.06L16.19,3l-.24.1-.23.12-.23.14-.2.15-.19.17-.18.19-.15.2c0,.07-.1.14-.14.21l-.13.22a2.29,2.29,0,0,1-.1.23c0,.08-.05.16-.08.24a1.84,1.84,0,0,0-.05.25,2,2,0,0,0,0,.24c0,.08,0,.17,0,.25a2.09,2.09,0,0,0,0,.25,1.94,1.94,0,0,0,0,.24c0,.09,0,.17,0,.25a1.55,1.55,0,0,1,.07.23l.09.23.1.21a2.53,2.53,0,0,1,.13.22,1.33,1.33,0,0,1,.14.19l.16.18.17.17.19.16.2.13.2.12.23.09.22.09.23.06.23,0,.24,0h.23l-.23,0-.23,0-.23,0-.22-.08L16,8.31l-.2-.11-.18-.13a1.24,1.24,0,0,1-.18-.14l-.17-.16-.15-.17L15,7.42l-.12-.19c0-.07-.07-.13-.1-.2a1.8,1.8,0,0,0-.08-.21l-.06-.21a.78.78,0,0,1,0-.21,1.92,1.92,0,0,1,0-.22,1.7,1.7,0,0,1,0-.22c0-.07,0-.15,0-.22s0-.14,0-.21a1.42,1.42,0,0,1,.05-.22c0-.06,0-.13.07-.2a1.67,1.67,0,0,1,.08-.2l.1-.19L15,4.54l.13-.17.14-.15.16-.15.17-.13.17-.1.19-.1.19-.08.2-.06.2-.05.21,0h.41l.2,0,.2,0,.2.06.18.07.18.09.17.11.16.12.15.13.13.14.12.16.11.16a1,1,0,0,0,.1.17,1.34,1.34,0,0,0,.07.18l.06.19c0,.06,0,.12.05.18l0,.19c0,.07,0,.13,0,.19v.19c0,.06,0,.13,0,.19s0,.12,0,.18a1.21,1.21,0,0,1-.05.18c0,.06-.05.12-.07.17s-.05.12-.08.17A1.4,1.4,0,0,1,19,7l-.1.15-.12.14a1.59,1.59,0,0,0-.13.13l-.15.11-.14.11-.16.08L18,7.77l-.17.06-.17,0-.17,0h-.35Z"/><path class="cls-2" d="M17.12,10.63l.42,0,.4-.07.4-.09.38-.13.37-.17.36-.19.33-.23.32-.25.29-.28.27-.3a3.71,3.71,0,0,0,.23-.32,3.87,3.87,0,0,0,.21-.34l.19-.35c0-.13.09-.25.14-.37l.12-.38c0-.13.05-.26.08-.39s0-.26.05-.39,0-.26,0-.4,0-.25,0-.38l-.06-.39c0-.13-.05-.26-.08-.39l-.12-.37-.15-.36-.18-.34-.21-.33-.24-.31c-.08-.1-.17-.19-.26-.29a3.45,3.45,0,0,1-.28-.26l-.32-.23-.32-.21-.34-.18-.35-.15-.37-.12L18,1.55l-.37-.05-.39,0h-.38l-.37.05-.37.07-.36.11-.36.14L15.09,2l-.32.2c-.11.07-.21.15-.3.22l-.29.24a3.31,3.31,0,0,1-.26.27,3.25,3.25,0,0,1-.23.29,3.37,3.37,0,0,1-.21.31l-.18.32a2.52,2.52,0,0,1-.15.34L13,4.56l-.09.35-.06.37a2.19,2.19,0,0,1,0,.36c0,.12,0,.25,0,.36l0,.37c0,.12,0,.24.07.35s.06.23.09.35a3.42,3.42,0,0,1,.13.34l.15.32.19.32a3,3,0,0,1,.2.29l.24.28c.08.08.16.17.25.25l.27.23.3.2.3.18.33.15.33.12.34.1.35.06.35,0h.34l-.34,0-.35,0-.34-.09-.33-.1-.32-.14-.3-.17-.29-.18L14.58,9l-.26-.23a2.62,2.62,0,0,0-.22-.25l-.21-.28-.19-.29c0-.1-.1-.2-.15-.3s-.08-.21-.13-.32L13.33,7c0-.11-.06-.22-.08-.33s0-.21,0-.33,0-.22,0-.33,0-.23,0-.34,0-.22,0-.33.05-.21.07-.33a3,3,0,0,0,.1-.32c0-.1.08-.2.13-.3s.09-.2.15-.3.12-.18.17-.27l.21-.27.21-.24.24-.23.26-.2.28-.18.28-.16.3-.12L16,2.3l.31-.07.33,0,.32,0h.32l.32,0,.31.06.31.09.3.12.28.14.27.16.26.18.24.21.22.22a2.31,2.31,0,0,0,.2.24,2.4,2.4,0,0,0,.18.26,1.82,1.82,0,0,0,.15.27c0,.09.08.19.13.29s.07.19.1.29,0,.2.08.3,0,.2.05.3l0,.31c0,.1,0,.2,0,.3a2.83,2.83,0,0,1,0,.3l-.06.31c0,.09,0,.19-.07.29s-.07.19-.11.28l-.12.28-.16.26L20,7.91l-.19.23-.21.21a2.11,2.11,0,0,1-.23.19l-.24.18-.25.15L18.56,9l-.28.1L18,9.18l-.29.06-.3,0h-.29Z"/><path class="cls-2" d="M6,15.28l-.16,0-.17,0-.17.05-.16.06-.16.07-.15.09-.14.1-.13.11L4.66,16l-.11.13-.09.13a1.09,1.09,0,0,0-.08.15,1,1,0,0,0-.07.15l-.06.16a1.13,1.13,0,0,0,0,.15l0,.17a.86.86,0,0,1,0,.16v.16c0,.06,0,.11,0,.16l0,.16c0,.05,0,.11,0,.16l.06.15.06.15a.57.57,0,0,1,.08.13.64.64,0,0,1,.1.13l.1.12.11.11.11.1.13.09.13.07.14.07.14.05.15,0,.15,0,.14,0h.3l.14,0,.14,0,.14-.05.13-.05.13-.08L7,18.72l.11-.08.1-.1.09-.11a.76.76,0,0,0,.08-.11.75.75,0,0,0,.07-.12.75.75,0,0,0,.07-.12.5.5,0,0,1,0-.13l0-.13,0-.13c0-.05,0-.09,0-.14v-.13a.53.53,0,0,0,0-.13c0-.05,0-.09,0-.13l0-.13a.93.93,0,0,0,0-.13l0-.12-.06-.11-.07-.1-.08-.11a.34.34,0,0,1-.08-.09l-.1-.08L7,16.21l-.1-.06-.11-.06L6.63,16l-.11,0L6.4,16H6.16l.11,0,.11,0,.11,0,.11.05.09.06.09.07.08.07.08.08L7,16.5s0,.06.07.09a.41.41,0,0,0,0,.09l0,.1,0,.1s0,.07,0,.1,0,.08,0,.11,0,.07,0,.11,0,.06,0,.1a.34.34,0,0,1,0,.1s0,.07,0,.1l0,.1,0,.09a.36.36,0,0,1,0,.09l0,.09L7,18,7,18a.46.46,0,0,0-.07.07l-.08.06-.08.05-.08.05-.08,0-.09,0-.09,0-.09,0H6l-.08,0-.09,0-.08,0-.08,0-.07,0a.18.18,0,0,0-.07-.05l-.06-.06-.06-.05,0-.07,0-.06a.59.59,0,0,1,0-.08l0-.06,0-.08a.19.19,0,0,0,0-.07s0-.05,0-.08a.17.17,0,0,0,0-.07s0-.05,0-.08v-.07a.64.64,0,0,1,0-.07s0-.06,0-.08l0-.06,0-.07,0-.06,0-.06a.12.12,0,0,0,0-.05s0,0,0-.05a.1.1,0,0,0,0,0l.06,0,0,0a.11.11,0,0,0,.06,0h.06l.06,0H6s0,0,0,0,0,0,0,0C6,16.2,6,15.74,6,15.28Z"/><path class="cls-2" d="M6,13.92l-.29,0L5.44,14l-.29.07-.27.1-.27.12-.25.14-.24.16-.22.19-.2.2-.2.22-.16.23-.15.24-.12.26a2.77,2.77,0,0,0-.1.26c0,.1-.05.18-.08.27s0,.19-.05.28a2.66,2.66,0,0,0,0,.28,2.53,2.53,0,0,0,0,.28c0,.09,0,.18,0,.28s0,.18,0,.27l.06.27.09.27a1.89,1.89,0,0,1,.11.25l.14.24c0,.08.1.15.15.23l.17.21.19.2.2.18.22.16.23.14.24.13.25.1.25.08.27.05.26,0h.53l.26,0,.26-.06L7,20.23l.24-.11L7.47,20l.21-.14a1.92,1.92,0,0,0,.21-.16l.19-.17c.07-.06.12-.12.18-.18l.16-.21.14-.21.12-.23c0-.08.07-.15.1-.23s.05-.16.08-.24L8.92,18l0-.25a2,2,0,0,0,0-.25v-.25l0-.25a2,2,0,0,1,0-.24c0-.08-.05-.16-.07-.24l-.09-.23c0-.07-.07-.14-.11-.22a2.39,2.39,0,0,1-.13-.21l-.15-.19a1.46,1.46,0,0,0-.16-.19L8,15.3l-.19-.15L7.62,15l-.21-.11-.22-.1L7,14.72l-.24-.06-.23,0-.24,0H6l.24,0,.23,0,.23.05.22.08.21.09.21.11.19.13.18.15.16.15a1.29,1.29,0,0,0,.16.17,2.14,2.14,0,0,0,.13.19L8.3,16l.1.2a1.8,1.8,0,0,1,.08.21c0,.07,0,.14.07.22s0,.14,0,.21l0,.22a1.55,1.55,0,0,0,0,.22,1.77,1.77,0,0,0,0,.23,1.55,1.55,0,0,0,0,.21,1.6,1.6,0,0,1-.05.21l-.06.21-.09.2a1.14,1.14,0,0,1-.1.19,1.4,1.4,0,0,1-.12.18L8,18.86c0,.05-.1.1-.15.15l-.15.15-.17.13-.18.11-.19.1L7,19.58l-.2.06-.2,0-.21,0H6l-.21,0-.2,0-.19-.06-.19-.07L5,19.43l-.17-.11-.16-.11-.16-.14-.13-.14-.12-.16-.12-.16a1.4,1.4,0,0,0-.09-.17L4,18.26l-.06-.19c0-.06,0-.12,0-.19l0-.19c0-.06,0-.12,0-.19v-.19c0-.06,0-.13,0-.19s0-.12,0-.18,0-.13,0-.19L4,16.57a1.19,1.19,0,0,1,.08-.16l.09-.16.11-.16L4.41,16l.13-.13.14-.11.16-.1L5,15.52l.17-.08.17-.06.18-.05.17,0H6C6,14.83,6,14.38,6,13.92Z"/><path class="cls-2" d="M6,12.56l-.42,0-.41.06-.4.1-.39.14L4,13.06l-.36.19-.33.22L3,13.73,2.73,14l-.27.31-.24.32L2,15l-.18.35-.15.38c0,.12-.07.25-.11.38s-.05.26-.08.39,0,.26-.05.4,0,.26,0,.39,0,.27,0,.4l.06.39.09.39.12.37a3,3,0,0,0,.16.36l.18.35.21.33.24.31.26.28.29.27.31.23.33.21.34.18.36.15.37.12.38.08.38.05.38,0h.38l.38-.05.38-.07.36-.11.35-.15.34-.16.33-.2.3-.22L9,20.55l.26-.28A3.25,3.25,0,0,0,9.5,20c.08-.1.14-.2.21-.3l.18-.33L10,19l.12-.35.09-.36.06-.37,0-.36c0-.13,0-.25,0-.37l0-.37c0-.12-.05-.23-.08-.35l-.09-.36a3.42,3.42,0,0,1-.13-.34l-.16-.33-.18-.31-.21-.29a3.22,3.22,0,0,0-.24-.28L9,14.32l-.28-.23-.3-.21-.31-.18-.32-.15-.34-.13a2.14,2.14,0,0,1-.34-.09l-.35-.06-.36,0H6l.34,0,.35.05.35.08.33.11.32.14L8,13.8l.29.19.28.21.25.24.23.25.21.28a2.9,2.9,0,0,1,.19.29l.15.3.14.32c0,.11.07.21.09.32l.09.34c0,.11,0,.22,0,.33s0,.23,0,.34,0,.23,0,.34,0,.22,0,.33,0,.22-.07.33-.07.22-.1.32a2.88,2.88,0,0,1-.13.31l-.15.3-.17.28-.2.27-.22.24-.24.23-.26.2-.28.18-.29.17-.3.12-.31.11L6.91,21l-.33.05-.33,0H5.93l-.32,0L5.3,21,5,20.9l-.29-.11-.29-.14a2.61,2.61,0,0,1-.28-.17l-.26-.18-.24-.21-.22-.22-.21-.25L3,19.37l-.16-.27c0-.1-.08-.19-.13-.29s-.07-.19-.1-.29l-.09-.3c0-.1,0-.2,0-.31s0-.2,0-.31v-.31l0-.3c0-.1,0-.2,0-.3s.06-.2.08-.3a2.47,2.47,0,0,0,.1-.29c0-.09.09-.19.13-.28L3,15.56l.17-.25.19-.24.21-.21.23-.2.25-.17.25-.16.27-.13.28-.1L5.14,14A1.36,1.36,0,0,1,5.43,14l.3,0H6C6,13.46,6,13,6,12.56Z"/></g></g></svg>